  0
SECTION
  2
BLOCKS
  0
ENDSEC
  0
SECTION
  2
ENTITIES
  0
LINE
  8
0
 10
19.238
 20
-9.56552
 11
19.6652
 21
-9.46295
  0
LINE
  8
0
 10
19.6652
 20
-9.46295
 11
20.0712
 21
-9.29482
  0
LINE
  8
0
 10
20.0712
 20
-9.29482
 11
20.4458
 21
-9.06525
  0
LINE
  8
0
 10
20.4458
 20
-9.06525
 11
20.7799
 21
-8.77989
  0
LINE
  8
0
 10
20.7799
 20
-8.77989
 11
21.0652
 21
-8.44579
  0
LINE
  8
0
 10
21.0652
 20
-8.44579
 11
21.2948
 21
-8.07117
  0
LINE
  8
0
 10
21.2948
 20
-8.07117
 11
21.463
 21
-7.66524
  0
LINE
  8
0
 10
21.463
 20
-7.66524
 11
21.5655
 21
-7.23801
  0
LINE
  8
0
 10
21.5655
 20
-7.23801
 11
21.6
 21
-6.79999
  0
LINE
  8
0
 10
21.6
 20
-6.79999
 11
21.6
 21
6.79999
  0
LINE
  8
0
 10
21.6
 20
6.79999
 11
21.5655
 21
7.23801
  0
LINE
  8
0
 10
21.5655
 20
7.23801
 11
21.463
 21
7.66524
  0
LINE
  8
0
 10
21.463
 20
7.66524
 11
21.2948
 21
8.07117
  0
LINE
  8
0
 10
21.2948
 20
8.07117
 11
21.0652
 21
8.44579
  0
LINE
  8
0
 10
21.0652
 20
8.44579
 11
20.7799
 21
8.77989
  0
LINE
  8
0
 10
20.7799
 20
8.77989
 11
20.4458
 21
9.06525
  0
LINE
  8
0
 10
20.4458
 20
9.06525
 11
20.0712
 21
9.29482
  0
LINE
  8
0
 10
20.0712
 20
9.29482
 11
19.6652
 21
9.46295
  0
LINE
  8
0
 10
19.6652
 20
9.46295
 11
19.238
 21
9.56552
  0
LINE
  8
0
 10
19.238
 20
9.56552
 11
18.8
 21
9.59999
  0
LINE
  8
0
 10
18.8
 20
9.59999
 11
-18.8
 21
9.59999
  0
LINE
  8
0
 10
-18.8
 20
9.59999
 11
-19.238
 21
9.56552
  0
LINE
  8
0
 10
-19.238
 20
9.56552
 11
-19.6652
 21
9.46295
  0
LINE
  8
0
 10
-19.6652
 20
9.46295
 11
-20.0712
 21
9.29482
  0
LINE
  8
0
 10
-20.0712
 20
9.29482
 11
-20.4458
 21
9.06525
  0
LINE
  8
0
 10
-20.4458
 20
9.06525
 11
-20.7799
 21
8.77989
  0
LINE
  8
0
 10
-20.7799
 20
8.77989
 11
-21.0652
 21
8.44579
  0
LINE
  8
0
 10
-21.0652
 20
8.44579
 11
-21.2948
 21
8.07117
  0
LINE
  8
0
 10
-21.2948
 20
8.07117
 11
-21.463
 21
7.66524
  0
LINE
  8
0
 10
-21.463
 20
7.66524
 11
-21.5655
 21
7.23801
  0
LINE
  8
0
 10
-21.5655
 20
7.23801
 11
-21.6
 21
6.79999
  0
LINE
  8
0
 10
-21.6
 20
6.79999
 11
-21.6
 21
-6.79999
  0
LINE
  8
0
 10
-21.6
 20
-6.79999
 11
-21.5655
 21
-7.23801
  0
LINE
  8
0
 10
-21.5655
 20
-7.23801
 11
-21.463
 21
-7.66524
  0
LINE
  8
0
 10
-21.463
 20
-7.66524
 11
-21.2948
 21
-8.07117
  0
LINE
  8
0
 10
-21.2948
 20
-8.07117
 11
-21.0652
 21
-8.44579
  0
LINE
  8
0
 10
-21.0652
 20
-8.44579
 11
-20.7799
 21
-8.77989
  0
LINE
  8
0
 10
-20.7799
 20
-8.77989
 11
-20.4458
 21
-9.06525
  0
LINE
  8
0
 10
-20.4458
 20
-9.06525
 11
-20.0712
 21
-9.29482
  0
LINE
  8
0
 10
-20.0712
 20
-9.29482
 11
-19.6652
 21
-9.46295
  0
LINE
  8
0
 10
-19.6652
 20
-9.46295
 11
-19.238
 21
-9.56552
  0
LINE
  8
0
 10
-19.238
 20
-9.56552
 11
-18.8
 21
-9.59999
  0
LINE
  8
0
 10
-18.8
 20
-9.59999
 11
18.8
 21
-9.59999
  0
LINE
  8
0
 10
18.8
 20
-9.59999
 11
19.238
 21
-9.56552
  0
LINE
  8
0
 10
-19.2
 20
-1.27016
 11
-19.2
 21
1.27016
  0
LINE
  8
0
 10
-19.2
 20
1.27016
 11
-17
 21
2.54033
  0
LINE
  8
0
 10
-17
 20
2.54033
 11
-14.8
 21
1.27016
  0
LINE
  8
0
 10
-14.8
 20
1.27016
 11
-14.8
 21
-1.27016
  0
LINE
  8
0
 10
-14.8
 20
-1.27016
 11
-17
 21
-2.54033
  0
LINE
  8
0
 10
-17
 20
-2.54033
 11
-19.2
 21
-1.27016
  0
LINE
  8
0
 10
14.8
 20
-1.27016
 11
14.8
 21
1.27016
  0
LINE
  8
0
 10
14.8
 20
1.27016
 11
17
 21
2.54033
  0
LINE
  8
0
 10
17
 20
2.54033
 11
19.2
 21
1.27016
  0
LINE
  8
0
 10
19.2
 20
1.27016
 11
19.2
 21
-1.27016
  0
LINE
  8
0
 10
19.2
 20
-1.27016
 11
17
 21
-2.54033
  0
LINE
  8
0
 10
17
 20
-2.54033
 11
14.8
 21
-1.27016
  0
ENDSEC
  0
SECTION
  2
OBJECTS
  0
DICTIONARY
  0
ENDSEC
  0
EOF
