  0
SECTION
  2
BLOCKS
  0
ENDSEC
  0
SECTION
  2
ENTITIES
  0
LINE
  8
0
 10
19.238
 20
-6.56552
 11
19.6652
 21
-6.46295
  0
LINE
  8
0
 10
19.6652
 20
-6.46295
 11
20.0712
 21
-6.29482
  0
LINE
  8
0
 10
20.0712
 20
-6.29482
 11
20.4458
 21
-6.06525
  0
LINE
  8
0
 10
20.4458
 20
-6.06525
 11
20.7799
 21
-5.77989
  0
LINE
  8
0
 10
20.7799
 20
-5.77989
 11
21.0652
 21
-5.44579
  0
LINE
  8
0
 10
21.0652
 20
-5.44579
 11
21.2948
 21
-5.07117
  0
LINE
  8
0
 10
21.2948
 20
-5.07117
 11
21.463
 21
-4.66524
  0
LINE
  8
0
 10
21.463
 20
-4.66524
 11
21.5655
 21
-4.23801
  0
LINE
  8
0
 10
21.5655
 20
-4.23801
 11
21.6
 21
-3.79999
  0
LINE
  8
0
 10
21.6
 20
-3.79999
 11
21.6
 21
3.79999
  0
LINE
  8
0
 10
21.6
 20
3.79999
 11
21.5655
 21
4.23801
  0
LINE
  8
0
 10
21.5655
 20
4.23801
 11
21.463
 21
4.66524
  0
LINE
  8
0
 10
21.463
 20
4.66524
 11
21.2948
 21
5.07117
  0
LINE
  8
0
 10
21.2948
 20
5.07117
 11
21.0652
 21
5.44579
  0
LINE
  8
0
 10
21.0652
 20
5.44579
 11
20.7799
 21
5.77989
  0
LINE
  8
0
 10
20.7799
 20
5.77989
 11
20.4458
 21
6.06525
  0
LINE
  8
0
 10
20.4458
 20
6.06525
 11
20.0712
 21
6.29482
  0
LINE
  8
0
 10
20.0712
 20
6.29482
 11
19.6652
 21
6.46295
  0
LINE
  8
0
 10
19.6652
 20
6.46295
 11
19.238
 21
6.56552
  0
LINE
  8
0
 10
19.238
 20
6.56552
 11
18.8
 21
6.59999
  0
LINE
  8
0
 10
18.8
 20
6.59999
 11
-18.8
 21
6.59999
  0
LINE
  8
0
 10
-18.8
 20
6.59999
 11
-19.238
 21
6.56552
  0
LINE
  8
0
 10
-19.238
 20
6.56552
 11
-19.6652
 21
6.46295
  0
LINE
  8
0
 10
-19.6652
 20
6.46295
 11
-20.0712
 21
6.29482
  0
LINE
  8
0
 10
-20.0712
 20
6.29482
 11
-20.4458
 21
6.06525
  0
LINE
  8
0
 10
-20.4458
 20
6.06525
 11
-20.7799
 21
5.77989
  0
LINE
  8
0
 10
-20.7799
 20
5.77989
 11
-21.0652
 21
5.44579
  0
LINE
  8
0
 10
-21.0652
 20
5.44579
 11
-21.2948
 21
5.07117
  0
LINE
  8
0
 10
-21.2948
 20
5.07117
 11
-21.463
 21
4.66524
  0
LINE
  8
0
 10
-21.463
 20
4.66524
 11
-21.5655
 21
4.23801
  0
LINE
  8
0
 10
-21.5655
 20
4.23801
 11
-21.6
 21
3.79999
  0
LINE
  8
0
 10
-21.6
 20
3.79999
 11
-21.6
 21
-3.79999
  0
LINE
  8
0
 10
-21.6
 20
-3.79999
 11
-21.5655
 21
-4.23801
  0
LINE
  8
0
 10
-21.5655
 20
-4.23801
 11
-21.463
 21
-4.66524
  0
LINE
  8
0
 10
-21.463
 20
-4.66524
 11
-21.2948
 21
-5.07117
  0
LINE
  8
0
 10
-21.2948
 20
-5.07117
 11
-21.0652
 21
-5.44579
  0
LINE
  8
0
 10
-21.0652
 20
-5.44579
 11
-20.7799
 21
-5.77989
  0
LINE
  8
0
 10
-20.7799
 20
-5.77989
 11
-20.4458
 21
-6.06525
  0
LINE
  8
0
 10
-20.4458
 20
-6.06525
 11
-20.0712
 21
-6.29482
  0
LINE
  8
0
 10
-20.0712
 20
-6.29482
 11
-19.6652
 21
-6.46295
  0
LINE
  8
0
 10
-19.6652
 20
-6.46295
 11
-19.238
 21
-6.56552
  0
LINE
  8
0
 10
-19.238
 20
-6.56552
 11
-18.8
 21
-6.59999
  0
LINE
  8
0
 10
-18.8
 20
-6.59999
 11
18.8
 21
-6.59999
  0
LINE
  8
0
 10
18.8
 20
-6.59999
 11
19.238
 21
-6.56552
  0
LINE
  8
0
 10
-17.4771
 20
-3.01244
 11
-17.9425
 21
-2.90071
  0
LINE
  8
0
 10
-17.9425
 20
-2.90071
 11
-18.3847
 21
-2.71756
  0
LINE
  8
0
 10
-18.3847
 20
-2.71756
 11
-18.7927
 21
-2.4675
  0
LINE
  8
0
 10
-18.7927
 20
-2.4675
 11
-19.1567
 21
-2.15666
  0
LINE
  8
0
 10
-19.1567
 20
-2.15666
 11
-19.4675
 21
-1.79274
  0
LINE
  8
0
 10
-19.4675
 20
-1.79274
 11
-19.7176
 21
-1.38466
  0
LINE
  8
0
 10
-19.7176
 20
-1.38466
 11
-19.9007
 21
-0.94249
  0
LINE
  8
0
 10
-19.9007
 20
-0.94249
 11
-20.0124
 21
-0.477112
  0
LINE
  8
0
 10
-20.0124
 20
-0.477112
 11
-20.05
 21
0
  0
LINE
  8
0
 10
-20.05
 20
0
 11
-20.0124
 21
0.477112
  0
LINE
  8
0
 10
-20.0124
 20
0.477112
 11
-19.9007
 21
0.94249
  0
LINE
  8
0
 10
-19.9007
 20
0.94249
 11
-19.7176
 21
1.38466
  0
LINE
  8
0
 10
-19.7176
 20
1.38466
 11
-19.4675
 21
1.79274
  0
LINE
  8
0
 10
-19.4675
 20
1.79274
 11
-19.1567
 21
2.15666
  0
LINE
  8
0
 10
-19.1567
 20
2.15666
 11
-18.7927
 21
2.4675
  0
LINE
  8
0
 10
-18.7927
 20
2.4675
 11
-18.3847
 21
2.71756
  0
LINE
  8
0
 10
-18.3847
 20
2.71756
 11
-17.9425
 21
2.90071
  0
LINE
  8
0
 10
-17.9425
 20
2.90071
 11
-17.4771
 21
3.01244
  0
LINE
  8
0
 10
-17.4771
 20
3.01244
 11
-17
 21
3.04999
  0
LINE
  8
0
 10
-17
 20
3.04999
 11
-16.5229
 21
3.01244
  0
LINE
  8
0
 10
-16.5229
 20
3.01244
 11
-16.0575
 21
2.90071
  0
LINE
  8
0
 10
-16.0575
 20
2.90071
 11
-15.6153
 21
2.71756
  0
LINE
  8
0
 10
-15.6153
 20
2.71756
 11
-15.2072
 21
2.4675
  0
LINE
  8
0
 10
-15.2072
 20
2.4675
 11
-14.8433
 21
2.15666
  0
LINE
  8
0
 10
-14.8433
 20
2.15666
 11
-14.5325
 21
1.79274
  0
LINE
  8
0
 10
-14.5325
 20
1.79274
 11
-14.2824
 21
1.38466
  0
LINE
  8
0
 10
-14.2824
 20
1.38466
 11
-14.0993
 21
0.94249
  0
LINE
  8
0
 10
-14.0993
 20
0.94249
 11
-13.9875
 21
0.477112
  0
LINE
  8
0
 10
-13.9875
 20
0.477112
 11
-13.95
 21
0
  0
LINE
  8
0
 10
-13.95
 20
0
 11
-13.9875
 21
-0.477112
  0
LINE
  8
0
 10
-13.9875
 20
-0.477112
 11
-14.0993
 21
-0.94249
  0
LINE
  8
0
 10
-14.0993
 20
-0.94249
 11
-14.2824
 21
-1.38466
  0
LINE
  8
0
 10
-14.2824
 20
-1.38466
 11
-14.5325
 21
-1.79274
  0
LINE
  8
0
 10
-14.5325
 20
-1.79274
 11
-14.8433
 21
-2.15666
  0
LINE
  8
0
 10
-14.8433
 20
-2.15666
 11
-15.2072
 21
-2.4675
  0
LINE
  8
0
 10
-15.2072
 20
-2.4675
 11
-15.6153
 21
-2.71756
  0
LINE
  8
0
 10
-15.6153
 20
-2.71756
 11
-16.0575
 21
-2.90071
  0
LINE
  8
0
 10
-16.0575
 20
-2.90071
 11
-16.5229
 21
-3.01244
  0
LINE
  8
0
 10
-16.5229
 20
-3.01244
 11
-17
 21
-3.04999
  0
LINE
  8
0
 10
-17
 20
-3.04999
 11
-17.4771
 21
-3.01244
  0
LINE
  8
0
 10
16.5229
 20
-3.01244
 11
16.0575
 21
-2.90071
  0
LINE
  8
0
 10
16.0575
 20
-2.90071
 11
15.6153
 21
-2.71756
  0
LINE
  8
0
 10
15.6153
 20
-2.71756
 11
15.2072
 21
-2.4675
  0
LINE
  8
0
 10
15.2072
 20
-2.4675
 11
14.8433
 21
-2.15666
  0
LINE
  8
0
 10
14.8433
 20
-2.15666
 11
14.5325
 21
-1.79274
  0
LINE
  8
0
 10
14.5325
 20
-1.79274
 11
14.2824
 21
-1.38466
  0
LINE
  8
0
 10
14.2824
 20
-1.38466
 11
14.0993
 21
-0.94249
  0
LINE
  8
0
 10
14.0993
 20
-0.94249
 11
13.9875
 21
-0.477112
  0
LINE
  8
0
 10
13.9875
 20
-0.477112
 11
13.95
 21
0
  0
LINE
  8
0
 10
13.95
 20
0
 11
13.9875
 21
0.477112
  0
LINE
  8
0
 10
13.9875
 20
0.477112
 11
14.0993
 21
0.94249
  0
LINE
  8
0
 10
14.0993
 20
0.94249
 11
14.2824
 21
1.38466
  0
LINE
  8
0
 10
14.2824
 20
1.38466
 11
14.5325
 21
1.79274
  0
LINE
  8
0
 10
14.5325
 20
1.79274
 11
14.8433
 21
2.15666
  0
LINE
  8
0
 10
14.8433
 20
2.15666
 11
15.2072
 21
2.4675
  0
LINE
  8
0
 10
15.2072
 20
2.4675
 11
15.6153
 21
2.71756
  0
LINE
  8
0
 10
15.6153
 20
2.71756
 11
16.0575
 21
2.90071
  0
LINE
  8
0
 10
16.0575
 20
2.90071
 11
16.5229
 21
3.01244
  0
LINE
  8
0
 10
16.5229
 20
3.01244
 11
17
 21
3.04999
  0
LINE
  8
0
 10
17
 20
3.04999
 11
17.4771
 21
3.01244
  0
LINE
  8
0
 10
17.4771
 20
3.01244
 11
17.9425
 21
2.90071
  0
LINE
  8
0
 10
17.9425
 20
2.90071
 11
18.3847
 21
2.71756
  0
LINE
  8
0
 10
18.3847
 20
2.71756
 11
18.7927
 21
2.4675
  0
LINE
  8
0
 10
18.7927
 20
2.4675
 11
19.1567
 21
2.15666
  0
LINE
  8
0
 10
19.1567
 20
2.15666
 11
19.4675
 21
1.79274
  0
LINE
  8
0
 10
19.4675
 20
1.79274
 11
19.7176
 21
1.38466
  0
LINE
  8
0
 10
19.7176
 20
1.38466
 11
19.9007
 21
0.94249
  0
LINE
  8
0
 10
19.9007
 20
0.94249
 11
20.0124
 21
0.477112
  0
LINE
  8
0
 10
20.0124
 20
0.477112
 11
20.05
 21
0
  0
LINE
  8
0
 10
20.05
 20
0
 11
20.0124
 21
-0.477112
  0
LINE
  8
0
 10
20.0124
 20
-0.477112
 11
19.9007
 21
-0.94249
  0
LINE
  8
0
 10
19.9007
 20
-0.94249
 11
19.7176
 21
-1.38466
  0
LINE
  8
0
 10
19.7176
 20
-1.38466
 11
19.4675
 21
-1.79274
  0
LINE
  8
0
 10
19.4675
 20
-1.79274
 11
19.1567
 21
-2.15666
  0
LINE
  8
0
 10
19.1567
 20
-2.15666
 11
18.7927
 21
-2.4675
  0
LINE
  8
0
 10
18.7927
 20
-2.4675
 11
18.3847
 21
-2.71756
  0
LINE
  8
0
 10
18.3847
 20
-2.71756
 11
17.9425
 21
-2.90071
  0
LINE
  8
0
 10
17.9425
 20
-2.90071
 11
17.4771
 21
-3.01244
  0
LINE
  8
0
 10
17.4771
 20
-3.01244
 11
17
 21
-3.04999
  0
LINE
  8
0
 10
17
 20
-3.04999
 11
16.5229
 21
-3.01244
  0
ENDSEC
  0
SECTION
  2
OBJECTS
  0
DICTIONARY
  0
ENDSEC
  0
EOF
