  0
SECTION
  2
BLOCKS
  0
ENDSEC
  0
SECTION
  2
ENTITIES
  0
LINE
  8
0
 10
19.238
 20
-6.56552
 11
19.6652
 21
-6.46295
  0
LINE
  8
0
 10
19.6652
 20
-6.46295
 11
20.0712
 21
-6.29482
  0
LINE
  8
0
 10
20.0712
 20
-6.29482
 11
20.4458
 21
-6.06525
  0
LINE
  8
0
 10
20.4458
 20
-6.06525
 11
20.7799
 21
-5.77989
  0
LINE
  8
0
 10
20.7799
 20
-5.77989
 11
21.0652
 21
-5.44579
  0
LINE
  8
0
 10
21.0652
 20
-5.44579
 11
21.2948
 21
-5.07117
  0
LINE
  8
0
 10
21.2948
 20
-5.07117
 11
21.463
 21
-4.66524
  0
LINE
  8
0
 10
21.463
 20
-4.66524
 11
21.5655
 21
-4.23801
  0
LINE
  8
0
 10
21.5655
 20
-4.23801
 11
21.6
 21
-3.79999
  0
LINE
  8
0
 10
21.6
 20
-3.79999
 11
21.6
 21
3.79999
  0
LINE
  8
0
 10
21.6
 20
3.79999
 11
21.5655
 21
4.23801
  0
LINE
  8
0
 10
21.5655
 20
4.23801
 11
21.463
 21
4.66524
  0
LINE
  8
0
 10
21.463
 20
4.66524
 11
21.2948
 21
5.07117
  0
LINE
  8
0
 10
21.2948
 20
5.07117
 11
21.0652
 21
5.44579
  0
LINE
  8
0
 10
21.0652
 20
5.44579
 11
20.7799
 21
5.77989
  0
LINE
  8
0
 10
20.7799
 20
5.77989
 11
20.4458
 21
6.06525
  0
LINE
  8
0
 10
20.4458
 20
6.06525
 11
20.0712
 21
6.29482
  0
LINE
  8
0
 10
20.0712
 20
6.29482
 11
19.6652
 21
6.46295
  0
LINE
  8
0
 10
19.6652
 20
6.46295
 11
19.238
 21
6.56552
  0
LINE
  8
0
 10
19.238
 20
6.56552
 11
18.8
 21
6.59999
  0
LINE
  8
0
 10
18.8
 20
6.59999
 11
-18.8
 21
6.59999
  0
LINE
  8
0
 10
-18.8
 20
6.59999
 11
-19.238
 21
6.56552
  0
LINE
  8
0
 10
-19.238
 20
6.56552
 11
-19.6652
 21
6.46295
  0
LINE
  8
0
 10
-19.6652
 20
6.46295
 11
-20.0712
 21
6.29482
  0
LINE
  8
0
 10
-20.0712
 20
6.29482
 11
-20.4458
 21
6.06525
  0
LINE
  8
0
 10
-20.4458
 20
6.06525
 11
-20.7799
 21
5.77989
  0
LINE
  8
0
 10
-20.7799
 20
5.77989
 11
-21.0652
 21
5.44579
  0
LINE
  8
0
 10
-21.0652
 20
5.44579
 11
-21.2948
 21
5.07117
  0
LINE
  8
0
 10
-21.2948
 20
5.07117
 11
-21.463
 21
4.66524
  0
LINE
  8
0
 10
-21.463
 20
4.66524
 11
-21.5655
 21
4.23801
  0
LINE
  8
0
 10
-21.5655
 20
4.23801
 11
-21.6
 21
3.79999
  0
LINE
  8
0
 10
-21.6
 20
3.79999
 11
-21.6
 21
-3.79999
  0
LINE
  8
0
 10
-21.6
 20
-3.79999
 11
-21.5655
 21
-4.23801
  0
LINE
  8
0
 10
-21.5655
 20
-4.23801
 11
-21.463
 21
-4.66524
  0
LINE
  8
0
 10
-21.463
 20
-4.66524
 11
-21.2948
 21
-5.07117
  0
LINE
  8
0
 10
-21.2948
 20
-5.07117
 11
-21.0652
 21
-5.44579
  0
LINE
  8
0
 10
-21.0652
 20
-5.44579
 11
-20.7799
 21
-5.77989
  0
LINE
  8
0
 10
-20.7799
 20
-5.77989
 11
-20.4458
 21
-6.06525
  0
LINE
  8
0
 10
-20.4458
 20
-6.06525
 11
-20.0712
 21
-6.29482
  0
LINE
  8
0
 10
-20.0712
 20
-6.29482
 11
-19.6652
 21
-6.46295
  0
LINE
  8
0
 10
-19.6652
 20
-6.46295
 11
-19.238
 21
-6.56552
  0
LINE
  8
0
 10
-19.238
 20
-6.56552
 11
-18.8
 21
-6.59999
  0
LINE
  8
0
 10
-18.8
 20
-6.59999
 11
18.8
 21
-6.59999
  0
LINE
  8
0
 10
18.8
 20
-6.59999
 11
19.238
 21
-6.56552
  0
LINE
  8
0
 10
-17.4771
 20
-5.76244
 11
-17.9425
 21
-5.65071
  0
LINE
  8
0
 10
-17.9425
 20
-5.65071
 11
-18.3847
 21
-5.46756
  0
LINE
  8
0
 10
-18.3847
 20
-5.46756
 11
-18.7927
 21
-5.2175
  0
LINE
  8
0
 10
-18.7927
 20
-5.2175
 11
-19.1567
 21
-4.90666
  0
LINE
  8
0
 10
-19.1567
 20
-4.90666
 11
-19.4675
 21
-4.54274
  0
LINE
  8
0
 10
-19.4675
 20
-4.54274
 11
-19.7176
 21
-4.13466
  0
LINE
  8
0
 10
-19.7176
 20
-4.13466
 11
-19.9007
 21
-3.69249
  0
LINE
  8
0
 10
-19.9007
 20
-3.69249
 11
-20.0124
 21
-3.22711
  0
LINE
  8
0
 10
-20.0124
 20
-3.22711
 11
-20.05
 21
-2.75
  0
LINE
  8
0
 10
-20.05
 20
-2.75
 11
-20.0124
 21
-2.27287
  0
LINE
  8
0
 10
-20.0124
 20
-2.27287
 11
-19.9007
 21
-1.8075
  0
LINE
  8
0
 10
-19.9007
 20
-1.8075
 11
-19.7176
 21
-1.36533
  0
LINE
  8
0
 10
-19.7176
 20
-1.36533
 11
-19.4675
 21
-0.957245
  0
LINE
  8
0
 10
-19.4675
 20
-0.957245
 11
-19.1567
 21
-0.593323
  0
LINE
  8
0
 10
-19.1567
 20
-0.593323
 11
-18.7927
 21
-0.282486
  0
LINE
  8
0
 10
-18.7927
 20
-0.282486
 11
-18.3847
 21
-0.0324249
  0
LINE
  8
0
 10
-18.3847
 20
-0.0324249
 11
-18.3064
 21
0
  0
LINE
  8
0
 10
-18.3064
 20
0
 11
-18.3847
 21
0.0324249
  0
LINE
  8
0
 10
-18.3847
 20
0.0324249
 11
-18.7927
 21
0.282486
  0
LINE
  8
0
 10
-18.7927
 20
0.282486
 11
-19.1567
 21
0.593323
  0
LINE
  8
0
 10
-19.1567
 20
0.593323
 11
-19.4675
 21
0.957245
  0
LINE
  8
0
 10
-19.4675
 20
0.957245
 11
-19.7176
 21
1.36533
  0
LINE
  8
0
 10
-19.7176
 20
1.36533
 11
-19.9007
 21
1.8075
  0
LINE
  8
0
 10
-19.9007
 20
1.8075
 11
-20.0124
 21
2.27287
  0
LINE
  8
0
 10
-20.0124
 20
2.27287
 11
-20.05
 21
2.75
  0
LINE
  8
0
 10
-20.05
 20
2.75
 11
-20.0124
 21
3.22711
  0
LINE
  8
0
 10
-20.0124
 20
3.22711
 11
-19.9007
 21
3.69249
  0
LINE
  8
0
 10
-19.9007
 20
3.69249
 11
-19.7176
 21
4.13466
  0
LINE
  8
0
 10
-19.7176
 20
4.13466
 11
-19.4675
 21
4.54274
  0
LINE
  8
0
 10
-19.4675
 20
4.54274
 11
-19.1567
 21
4.90666
  0
LINE
  8
0
 10
-19.1567
 20
4.90666
 11
-18.7927
 21
5.2175
  0
LINE
  8
0
 10
-18.7927
 20
5.2175
 11
-18.3847
 21
5.46756
  0
LINE
  8
0
 10
-18.3847
 20
5.46756
 11
-17.9425
 21
5.65071
  0
LINE
  8
0
 10
-17.9425
 20
5.65071
 11
-17.4771
 21
5.76244
  0
LINE
  8
0
 10
-17.4771
 20
5.76244
 11
-17
 21
5.79999
  0
LINE
  8
0
 10
-17
 20
5.79999
 11
-16.5229
 21
5.76244
  0
LINE
  8
0
 10
-16.5229
 20
5.76244
 11
-16.0575
 21
5.65071
  0
LINE
  8
0
 10
-16.0575
 20
5.65071
 11
-15.6153
 21
5.46756
  0
LINE
  8
0
 10
-15.6153
 20
5.46756
 11
-15.2072
 21
5.2175
  0
LINE
  8
0
 10
-15.2072
 20
5.2175
 11
-14.8433
 21
4.90666
  0
LINE
  8
0
 10
-14.8433
 20
4.90666
 11
-14.5325
 21
4.54274
  0
LINE
  8
0
 10
-14.5325
 20
4.54274
 11
-14.2824
 21
4.13466
  0
LINE
  8
0
 10
-14.2824
 20
4.13466
 11
-14.0993
 21
3.69249
  0
LINE
  8
0
 10
-14.0993
 20
3.69249
 11
-13.9875
 21
3.22711
  0
LINE
  8
0
 10
-13.9875
 20
3.22711
 11
-13.95
 21
2.75
  0
LINE
  8
0
 10
-13.95
 20
2.75
 11
-13.9875
 21
2.27287
  0
LINE
  8
0
 10
-13.9875
 20
2.27287
 11
-14.0993
 21
1.8075
  0
LINE
  8
0
 10
-14.0993
 20
1.8075
 11
-14.2824
 21
1.36533
  0
LINE
  8
0
 10
-14.2824
 20
1.36533
 11
-14.5325
 21
0.957245
  0
LINE
  8
0
 10
-14.5325
 20
0.957245
 11
-14.8433
 21
0.593323
  0
LINE
  8
0
 10
-14.8433
 20
0.593323
 11
-15.2072
 21
0.282486
  0
LINE
  8
0
 10
-15.2072
 20
0.282486
 11
-15.6153
 21
0.0324249
  0
LINE
  8
0
 10
-15.6153
 20
0.0324249
 11
-15.6936
 21
0
  0
LINE
  8
0
 10
-15.6936
 20
0
 11
-15.6153
 21
-0.0324249
  0
LINE
  8
0
 10
-15.6153
 20
-0.0324249
 11
-15.2072
 21
-0.282486
  0
LINE
  8
0
 10
-15.2072
 20
-0.282486
 11
-14.8433
 21
-0.593323
  0
LINE
  8
0
 10
-14.8433
 20
-0.593323
 11
-14.5325
 21
-0.957245
  0
LINE
  8
0
 10
-14.5325
 20
-0.957245
 11
-14.2824
 21
-1.36533
  0
LINE
  8
0
 10
-14.2824
 20
-1.36533
 11
-14.0993
 21
-1.8075
  0
LINE
  8
0
 10
-14.0993
 20
-1.8075
 11
-13.9875
 21
-2.27287
  0
LINE
  8
0
 10
-13.9875
 20
-2.27287
 11
-13.95
 21
-2.75
  0
LINE
  8
0
 10
-13.95
 20
-2.75
 11
-13.9875
 21
-3.22711
  0
LINE
  8
0
 10
-13.9875
 20
-3.22711
 11
-14.0993
 21
-3.69249
  0
LINE
  8
0
 10
-14.0993
 20
-3.69249
 11
-14.2824
 21
-4.13466
  0
LINE
  8
0
 10
-14.2824
 20
-4.13466
 11
-14.5325
 21
-4.54274
  0
LINE
  8
0
 10
-14.5325
 20
-4.54274
 11
-14.8433
 21
-4.90666
  0
LINE
  8
0
 10
-14.8433
 20
-4.90666
 11
-15.2072
 21
-5.2175
  0
LINE
  8
0
 10
-15.2072
 20
-5.2175
 11
-15.6153
 21
-5.46756
  0
LINE
  8
0
 10
-15.6153
 20
-5.46756
 11
-16.0575
 21
-5.65071
  0
LINE
  8
0
 10
-16.0575
 20
-5.65071
 11
-16.5229
 21
-5.76244
  0
LINE
  8
0
 10
-16.5229
 20
-5.76244
 11
-17
 21
-5.79999
  0
LINE
  8
0
 10
-17
 20
-5.79999
 11
-17.4771
 21
-5.76244
  0
LINE
  8
0
 10
16.5229
 20
-5.76244
 11
16.0575
 21
-5.65071
  0
LINE
  8
0
 10
16.0575
 20
-5.65071
 11
15.6153
 21
-5.46756
  0
LINE
  8
0
 10
15.6153
 20
-5.46756
 11
15.2072
 21
-5.2175
  0
LINE
  8
0
 10
15.2072
 20
-5.2175
 11
14.8433
 21
-4.90666
  0
LINE
  8
0
 10
14.8433
 20
-4.90666
 11
14.5325
 21
-4.54274
  0
LINE
  8
0
 10
14.5325
 20
-4.54274
 11
14.2824
 21
-4.13466
  0
LINE
  8
0
 10
14.2824
 20
-4.13466
 11
14.0993
 21
-3.69249
  0
LINE
  8
0
 10
14.0993
 20
-3.69249
 11
13.9875
 21
-3.22711
  0
LINE
  8
0
 10
13.9875
 20
-3.22711
 11
13.95
 21
-2.75
  0
LINE
  8
0
 10
13.95
 20
-2.75
 11
13.9875
 21
-2.27287
  0
LINE
  8
0
 10
13.9875
 20
-2.27287
 11
14.0993
 21
-1.8075
  0
LINE
  8
0
 10
14.0993
 20
-1.8075
 11
14.2824
 21
-1.36533
  0
LINE
  8
0
 10
14.2824
 20
-1.36533
 11
14.5325
 21
-0.957245
  0
LINE
  8
0
 10
14.5325
 20
-0.957245
 11
14.8433
 21
-0.593323
  0
LINE
  8
0
 10
14.8433
 20
-0.593323
 11
15.2072
 21
-0.282486
  0
LINE
  8
0
 10
15.2072
 20
-0.282486
 11
15.6153
 21
-0.0324249
  0
LINE
  8
0
 10
15.6153
 20
-0.0324249
 11
15.6936
 21
0
  0
LINE
  8
0
 10
15.6936
 20
0
 11
15.6153
 21
0.0324249
  0
LINE
  8
0
 10
15.6153
 20
0.0324249
 11
15.2072
 21
0.282486
  0
LINE
  8
0
 10
15.2072
 20
0.282486
 11
14.8433
 21
0.593323
  0
LINE
  8
0
 10
14.8433
 20
0.593323
 11
14.5325
 21
0.957245
  0
LINE
  8
0
 10
14.5325
 20
0.957245
 11
14.2824
 21
1.36533
  0
LINE
  8
0
 10
14.2824
 20
1.36533
 11
14.0993
 21
1.8075
  0
LINE
  8
0
 10
14.0993
 20
1.8075
 11
13.9875
 21
2.27287
  0
LINE
  8
0
 10
13.9875
 20
2.27287
 11
13.95
 21
2.75
  0
LINE
  8
0
 10
13.95
 20
2.75
 11
13.9875
 21
3.22711
  0
LINE
  8
0
 10
13.9875
 20
3.22711
 11
14.0993
 21
3.69249
  0
LINE
  8
0
 10
14.0993
 20
3.69249
 11
14.2824
 21
4.13466
  0
LINE
  8
0
 10
14.2824
 20
4.13466
 11
14.5325
 21
4.54274
  0
LINE
  8
0
 10
14.5325
 20
4.54274
 11
14.8433
 21
4.90666
  0
LINE
  8
0
 10
14.8433
 20
4.90666
 11
15.2072
 21
5.2175
  0
LINE
  8
0
 10
15.2072
 20
5.2175
 11
15.6153
 21
5.46756
  0
LINE
  8
0
 10
15.6153
 20
5.46756
 11
16.0575
 21
5.65071
  0
LINE
  8
0
 10
16.0575
 20
5.65071
 11
16.5229
 21
5.76244
  0
LINE
  8
0
 10
16.5229
 20
5.76244
 11
17
 21
5.79999
  0
LINE
  8
0
 10
17
 20
5.79999
 11
17.4771
 21
5.76244
  0
LINE
  8
0
 10
17.4771
 20
5.76244
 11
17.9425
 21
5.65071
  0
LINE
  8
0
 10
17.9425
 20
5.65071
 11
18.3847
 21
5.46756
  0
LINE
  8
0
 10
18.3847
 20
5.46756
 11
18.7927
 21
5.2175
  0
LINE
  8
0
 10
18.7927
 20
5.2175
 11
19.1567
 21
4.90666
  0
LINE
  8
0
 10
19.1567
 20
4.90666
 11
19.4675
 21
4.54274
  0
LINE
  8
0
 10
19.4675
 20
4.54274
 11
19.7176
 21
4.13466
  0
LINE
  8
0
 10
19.7176
 20
4.13466
 11
19.9007
 21
3.69249
  0
LINE
  8
0
 10
19.9007
 20
3.69249
 11
20.0124
 21
3.22711
  0
LINE
  8
0
 10
20.0124
 20
3.22711
 11
20.05
 21
2.75
  0
LINE
  8
0
 10
20.05
 20
2.75
 11
20.0124
 21
2.27287
  0
LINE
  8
0
 10
20.0124
 20
2.27287
 11
19.9007
 21
1.8075
  0
LINE
  8
0
 10
19.9007
 20
1.8075
 11
19.7176
 21
1.36533
  0
LINE
  8
0
 10
19.7176
 20
1.36533
 11
19.4675
 21
0.957245
  0
LINE
  8
0
 10
19.4675
 20
0.957245
 11
19.1567
 21
0.593323
  0
LINE
  8
0
 10
19.1567
 20
0.593323
 11
18.7927
 21
0.282486
  0
LINE
  8
0
 10
18.7927
 20
0.282486
 11
18.3847
 21
0.0324249
  0
LINE
  8
0
 10
18.3847
 20
0.0324249
 11
18.3064
 21
0
  0
LINE
  8
0
 10
18.3064
 20
0
 11
18.3847
 21
-0.0324249
  0
LINE
  8
0
 10
18.3847
 20
-0.0324249
 11
18.7927
 21
-0.282486
  0
LINE
  8
0
 10
18.7927
 20
-0.282486
 11
19.1567
 21
-0.593323
  0
LINE
  8
0
 10
19.1567
 20
-0.593323
 11
19.4675
 21
-0.957245
  0
LINE
  8
0
 10
19.4675
 20
-0.957245
 11
19.7176
 21
-1.36533
  0
LINE
  8
0
 10
19.7176
 20
-1.36533
 11
19.9007
 21
-1.8075
  0
LINE
  8
0
 10
19.9007
 20
-1.8075
 11
20.0124
 21
-2.27287
  0
LINE
  8
0
 10
20.0124
 20
-2.27287
 11
20.05
 21
-2.75
  0
LINE
  8
0
 10
20.05
 20
-2.75
 11
20.0124
 21
-3.22711
  0
LINE
  8
0
 10
20.0124
 20
-3.22711
 11
19.9007
 21
-3.69249
  0
LINE
  8
0
 10
19.9007
 20
-3.69249
 11
19.7176
 21
-4.13466
  0
LINE
  8
0
 10
19.7176
 20
-4.13466
 11
19.4675
 21
-4.54274
  0
LINE
  8
0
 10
19.4675
 20
-4.54274
 11
19.1567
 21
-4.90666
  0
LINE
  8
0
 10
19.1567
 20
-4.90666
 11
18.7927
 21
-5.2175
  0
LINE
  8
0
 10
18.7927
 20
-5.2175
 11
18.3847
 21
-5.46756
  0
LINE
  8
0
 10
18.3847
 20
-5.46756
 11
17.9425
 21
-5.65071
  0
LINE
  8
0
 10
17.9425
 20
-5.65071
 11
17.4771
 21
-5.76244
  0
LINE
  8
0
 10
17.4771
 20
-5.76244
 11
17
 21
-5.79999
  0
LINE
  8
0
 10
17
 20
-5.79999
 11
16.5229
 21
-5.76244
  0
ENDSEC
  0
SECTION
  2
OBJECTS
  0
DICTIONARY
  0
ENDSEC
  0
EOF
